<svg width="62" height="60" viewBox="0 0 62 60" fill="none" xmlns="http://www.w3.org/2000/svg">
<path fill-rule="evenodd" clip-rule="evenodd" d="M30.9237 0C23.5799 0.00381029 16.4769 2.60485 10.8847 7.33801C5.29263 12.0712 1.57609 18.6278 0.399644 25.8356C-0.776797 33.0433 0.663574 40.4321 4.46323 46.6808C8.26289 52.9295 14.174 57.6306 21.1397 59.9435C22.6765 60.2287 23.2553 59.2763 23.2553 58.4665C23.2553 57.6566 23.2246 55.3086 23.2143 52.7415C14.6086 54.6006 12.7901 49.11 12.7901 49.11C11.3865 45.5446 9.35804 44.6075 9.35804 44.6075C6.55092 42.7026 9.56807 42.7382 9.56807 42.7382C12.6774 42.9572 14.3115 45.9114 14.3115 45.9114C17.0674 50.6125 21.5495 49.2526 23.3117 48.458C23.5883 46.4665 24.3925 45.1117 25.2787 44.3426C18.4043 43.5684 11.1816 40.9301 11.1816 29.1441C11.139 26.0875 12.2798 23.1315 14.3678 20.8878C14.0502 20.1136 12.9899 16.9863 14.67 12.7384C14.67 12.7384 17.2672 11.9133 23.1785 15.8912C28.2489 14.5125 33.5985 14.5125 38.6689 15.8912C44.5751 11.9133 47.167 12.7384 47.167 12.7384C48.8523 16.9761 47.792 20.1034 47.4744 20.8878C49.5691 23.1319 50.7122 26.093 50.6657 29.1543C50.6657 40.9657 43.4276 43.5684 36.543 44.3273C37.6495 45.2849 38.6381 47.1541 38.6381 50.0268C38.6381 54.1422 38.6023 57.4529 38.6023 58.4665C38.6023 59.2865 39.1606 60.244 40.7281 59.9435C47.6946 57.6303 53.6063 52.9284 57.4059 46.6786C61.2055 40.4289 62.6451 33.039 61.4673 25.8306C60.2896 18.6221 56.5712 12.0654 50.9772 7.33307C45.3832 2.60072 38.2786 0.00139514 30.9339 0L30.9237 0Z" fill="#121212"/>
</svg>
