<svg width="70" height="60" viewBox="0 0 70 60" fill="none" xmlns="http://www.w3.org/2000/svg">
<path d="M22.5361 0H46.6144L69.2588 39.1054H45.1264L22.5361 0Z" fill="url(#paint0_linear_305_2334)"/>
<path d="M69.2589 39.1055L57.1927 59.9996H12.0122L24.1054 39.1055H69.2589Z" fill="url(#paint1_linear_305_2334)"/>
<path d="M12.0121 59.9996L0 39.1054L22.5361 0L34.6294 20.9484L12.0121 59.9996Z" fill="url(#paint2_linear_305_2334)"/>
<path opacity="0.1" d="M12.0122 59.9996L34.4942 39.1054H24.1054L12.0122 59.9996ZM69.2589 39.1054H45.1536L39.851 29.9456L69.2589 39.1054ZM22.5363 0L29.4892 29.8101L34.6295 20.9484L22.5363 0Z" fill="black"/>
<defs>
<linearGradient id="paint0_linear_305_2334" x1="22.5363" y1="-8.42612" x2="3294.34" y2="5526.47" gradientUnits="userSpaceOnUse">
<stop stop-color="#F6C338"/>
<stop offset="0.523" stop-color="#FFD351"/>
<stop offset="1" stop-color="#F6C338"/>
</linearGradient>
<linearGradient id="paint1_linear_305_2334" x1="5164.21" y1="34.6034" x2="4199.61" y2="3776.63" gradientUnits="userSpaceOnUse">
<stop stop-color="#286EE6"/>
<stop offset="0.521" stop-color="#4286FB"/>
<stop offset="1" stop-color="#286EE6"/>
</linearGradient>
<linearGradient id="paint2_linear_305_2334" x1="2033.21" y1="2.01068e-05" x2="-490.867" y2="7041.31" gradientUnits="userSpaceOnUse">
<stop stop-color="#069B5A"/>
<stop offset="0.531" stop-color="#11AA62"/>
<stop offset="1" stop-color="#069B5A"/>
</linearGradient>
</defs>
</svg>
