<svg width="60" height="60" viewBox="0 0 60 60" fill="none" xmlns="http://www.w3.org/2000/svg">
<path d="M30 3.75C15.5215 3.75 3.75 15.5215 3.75 30C3.75 44.4785 15.5215 56.25 30 56.25C44.4785 56.25 56.25 44.4785 56.25 30C56.25 15.5215 44.4785 3.75 30 3.75Z" fill="#FDDD4C"/>
<path d="M18.5036 36.8436C17.9296 35.9746 19.3733 34.6594 18.7861 33.5551C18.4476 32.9182 17.8943 32.5214 17.2299 32.4381C16.5922 32.3581 15.9352 32.5915 15.5165 33.0478C14.8554 33.7672 14.7526 34.7464 14.8805 35.0929C14.9273 35.22 15.0008 35.2546 15.0535 35.262C15.4136 35.3094 15.6162 34.3853 15.7405 34.1929C16.0842 33.6623 16.8647 33.5018 17.4037 33.8505C18.4257 34.5115 17.5395 35.5799 17.616 36.4822C17.6904 37.3608 18.2378 37.7139 18.7292 37.7511C19.2073 37.7692 19.5416 37.5036 19.626 37.3097C19.8284 36.8469 18.9759 37.5586 18.5036 36.8436Z" fill="black"/>
<path d="M39.8577 28.8667C39.5896 28.8296 39.2966 28.8305 38.9918 28.8667C38.7604 28.5747 38.553 28.1019 38.436 27.55C38.2279 26.5683 38.2497 25.8571 38.8305 25.7647C39.4114 25.6723 39.6922 26.2663 39.9003 27.2481C40.0399 27.9081 40.0132 28.5144 39.8577 28.8667Z" fill="black"/>
<path d="M33.4957 29.4508C33.5186 29.6731 33.5268 29.8981 33.5202 30.1052C34.0823 30.1382 34.4804 30.4052 34.5864 30.5745C34.6407 30.662 34.619 30.7189 34.6014 30.7453C34.5433 30.8358 34.4186 30.8218 34.1574 30.7925C33.9292 30.7669 33.6835 30.7444 33.4282 30.7561C33.2892 31.1822 32.8773 31.2221 32.5878 30.907C32.3856 30.9686 31.9884 31.2222 31.8701 30.9466C31.8691 30.8098 32.0121 30.611 32.2711 30.4354C32.0943 30.0982 31.9758 29.7371 31.9058 29.3633C31.5386 29.4294 31.2083 29.5323 30.9494 29.6129C30.8278 29.6508 30.3469 29.868 30.2905 29.6232C30.2529 29.454 30.5162 29.1752 30.7945 28.9739C31.1054 28.7531 31.4505 28.5962 31.8081 28.5056C31.8004 27.9731 31.9363 27.6016 32.3231 27.5401C32.8028 27.4638 33.1001 27.8331 33.3059 28.517C33.8856 28.6781 34.4646 29.0775 34.7201 29.4903C34.8196 29.6504 34.8388 29.7741 34.7744 29.8393C34.6138 30.0059 33.7237 29.5231 33.4957 29.4508Z" fill="black"/>
<path d="M37.3077 31.8441C37.6755 32.0223 38.08 31.9522 38.212 31.6874C38.3441 31.4225 38.1527 31.0637 37.7849 30.8855C37.4172 30.7073 37.0127 30.7774 36.8806 31.0422C36.7486 31.307 36.94 31.6659 37.3077 31.8441Z" fill="black"/>
<path d="M39.118 30.5291C39.1246 30.124 39.3729 29.8006 39.6712 29.8055C39.9696 29.8113 40.2061 30.143 40.1995 30.5472C40.1928 30.9515 39.9445 31.2749 39.6462 31.2699C39.3478 31.265 39.1113 30.9333 39.118 30.5291Z" fill="black"/>
<path fill-rule="evenodd" clip-rule="evenodd" d="M47.2092 35.4898C47.215 35.5104 47.2067 35.4813 47.2092 35.4898C47.8084 35.4898 48.7495 36.1696 48.7495 37.8122C48.7495 39.4465 48.0625 41.2978 47.9004 41.7086C45.4256 47.5628 39.5192 50.8215 32.4836 50.6153C25.9244 50.4231 20.3305 47.0067 17.8825 41.4372C16.4024 41.4388 14.8763 40.7962 13.7162 39.7814C12.4935 38.7122 11.7396 37.3287 11.5925 35.8858C11.478 34.7621 11.6176 33.7169 11.9744 32.8052L10.5996 31.6552C4.30784 26.4115 23.9862 4.82135 30.2797 10.2399C30.3114 10.2672 32.4209 12.3098 32.4259 12.3148C35.4605 11.043 43.5911 8.62151 43.6003 14.2585C43.6036 16.1304 42.3951 18.3134 40.4586 20.2942C42.6966 22.3428 42.1064 25.2529 42.4628 27.9229L43.2401 28.1358C44.7219 28.5458 45.7758 29.0928 46.2915 29.6274C46.8072 30.1611 47.0629 30.6784 47.1557 31.2848C47.2426 31.774 47.2309 32.6378 46.5773 33.6038C46.8127 34.227 47.0275 34.8484 47.2092 35.4898ZM17.7714 39.9184C17.9912 39.9233 18.2093 39.9093 18.4233 39.873C20.7225 39.4861 21.3243 37.021 20.9457 34.6004C20.5178 31.8672 18.6448 30.9036 17.3736 30.8352C17.02 30.817 16.6916 30.8484 16.4208 30.902C14.1516 31.3533 12.8704 33.259 13.1228 35.734C13.351 37.9739 15.646 39.8623 17.7714 39.9184ZM12.6322 31.5735C13.3936 30.4821 14.6381 29.6925 16.0505 29.4211C17.8483 24.6576 20.8504 20.2686 24.8237 17.2483C27.7723 14.8203 30.9525 13.0787 30.9525 13.0787C30.9525 13.0787 29.2399 11.1186 28.7226 10.9742C25.5408 10.1261 18.669 14.8038 14.2812 20.9847C12.506 23.4853 9.96439 27.9138 11.1796 30.1917C11.3292 30.4738 12.1775 31.199 12.6322 31.5735ZM38.4285 38.8244C38.4335 38.8756 38.4017 38.9284 38.3558 38.9473C38.3558 38.9473 35.7991 40.1213 31.7381 38.8813C31.8841 40.0987 33.3603 40.56 34.3917 40.7269C39.4239 41.5816 44.1285 38.7411 45.1874 38.0258C45.3693 37.903 45.1852 38.2187 45.1523 38.2651C43.856 39.9159 40.3708 41.8274 35.8367 41.8266C33.8593 41.8258 31.8827 41.1385 31.1572 40.0817C30.0314 38.4425 31.1012 36.0491 32.9775 36.2983C36.1491 36.6518 39.4006 36.3862 42.3366 35.041C44.8966 33.8678 45.8636 32.5775 45.7181 31.5323C45.4926 29.9123 43.0909 29.659 41.8769 29.2652C41.3487 29.0928 41.0879 28.955 41.0286 27.9741C41.0027 27.5459 40.9275 26.0518 40.8999 25.4339C40.8514 24.3523 40.7194 22.8731 39.79 22.2626C39.5476 22.1034 39.2785 22.0267 38.9951 22.0118C38.7692 22.001 38.6353 22.0321 38.5633 22.0488C38.5471 22.0525 38.534 22.0555 38.5238 22.0572C38.022 22.1414 37.7144 22.3953 37.3518 22.6947C37.3309 22.712 37.3098 22.7294 37.2885 22.7469C36.1293 23.7006 35.1506 23.8565 34.0615 23.8103C33.7224 23.7961 33.3728 23.7622 33.0041 23.7265C32.6649 23.6936 32.3095 23.6592 31.9311 23.6371L31.469 23.6107C29.6453 23.5183 27.6896 25.0726 27.3645 27.2802C27.0012 29.7445 28.3786 31.2538 29.2744 32.2355C29.4957 32.478 29.6876 32.6883 29.8166 32.8729C29.8994 32.9843 29.9955 33.141 29.9955 33.2903C29.9955 33.4685 29.8785 33.6096 29.764 33.7301C27.9035 35.6185 27.3085 38.619 28.0097 41.1196C28.0974 41.4314 28.2086 41.7301 28.3398 42.0155C29.9846 45.8097 35.0879 47.5768 40.0725 45.9697C43.5659 44.8433 46.6525 42.1214 47.2811 38.3666C47.4307 37.3881 47.2108 37.0103 46.9116 36.8279C46.5949 36.6357 46.2154 36.7025 46.2154 36.7025C46.2154 36.7025 46.0424 35.5335 45.5527 34.4709C44.0992 35.6028 42.2288 36.3981 40.8046 36.8015C38.5228 37.4477 36.0581 37.6992 33.7002 37.3946C32.7438 37.271 32.1013 37.188 31.8258 38.0712C34.9709 39.208 38.2998 38.7213 38.2998 38.7213C38.3641 38.7147 38.4218 38.7609 38.4285 38.8244ZM29.3544 16.7632C27.6344 17.6319 25.7138 19.1788 24.1542 20.9583C24.0991 21.0218 24.181 21.1093 24.2487 21.0606C25.5959 20.0929 27.443 19.1936 29.8626 18.6112C32.573 17.9586 35.1823 18.2325 36.7762 18.593C36.8564 18.6112 36.9065 18.4751 36.8355 18.4355C35.7824 17.8522 34.166 17.4562 33.0193 17.4479C32.9633 17.4471 32.9316 17.3828 32.965 17.3382C33.1631 17.075 33.4347 16.8152 33.6829 16.6271C33.7381 16.5842 33.7047 16.4959 33.6345 16.5C32.208 16.5865 28.9499 18.072 28.9616 18.018C29.0452 17.622 29.3085 17.099 29.4447 16.8548C29.4773 16.797 29.4138 16.7335 29.3544 16.7632Z" fill="black"/>
</svg>
