<svg width="60" height="60" viewBox="0 0 60 60" fill="none" xmlns="http://www.w3.org/2000/svg">
<path fill-rule="evenodd" clip-rule="evenodd" d="M10.717 54.7829L4.2682 46.7492C2.71663 44.8163 1.87451 42.4394 1.87451 39.993L1.87451 10.9026C1.87451 7.23822 4.80624 4.19758 8.58835 3.93936L38.4973 1.89735C40.6701 1.749 42.8298 2.32656 44.6147 3.53333L55.1231 10.6381C57.0041 11.9099 58.1245 13.9889 58.1245 16.2075L58.1245 49.2805C58.1245 52.8665 55.2418 55.8357 51.5388 56.0636L18.3433 58.107C15.3883 58.2889 12.532 57.0439 10.717 54.7829Z" fill="white"/>
<path d="M21.0902 25.4599V25.079C21.0902 24.1136 21.8634 23.3129 22.8599 23.2464L30.1187 22.7618L40.157 37.5439V24.5701L37.5731 24.2257V24.0448C37.5731 23.068 38.364 22.262 39.3733 22.2103L45.978 21.872V22.8225C45.978 23.2687 45.6462 23.6503 45.1914 23.7272L43.602 23.996L43.602 45.0067L41.6073 45.6927C39.9409 46.2658 38.0857 45.6523 37.1317 44.2128L27.3864 29.507V43.5429L30.386 44.1169L30.3442 44.3952C30.2133 45.2667 29.4608 45.9258 28.5506 45.9663L21.0902 46.2984C20.9916 45.3612 21.694 44.5227 22.6629 44.421L23.6443 44.3179V25.6034L21.0902 25.4599Z" fill="black"/>
<path fill-rule="evenodd" clip-rule="evenodd" d="M38.7654 5.56253L8.85651 7.60454C7.06498 7.72685 5.67627 9.16715 5.67627 10.9029L5.67627 39.9933C5.67627 41.6242 6.23768 43.2088 7.27206 44.4974L13.7209 52.5311C14.7635 53.83 16.4044 54.5452 18.1019 54.4407L51.2974 52.3974C52.9988 52.2926 54.3233 50.9284 54.3233 49.2808L54.3233 16.2078C54.3233 15.1884 53.8085 14.2332 52.9443 13.6489L42.4359 6.54412C41.3649 5.82006 40.0691 5.47352 38.7654 5.56253ZM10.3396 11.3567C9.92365 11.0487 10.1216 10.4071 10.6442 10.3696L38.9666 8.33815C39.869 8.27342 40.7657 8.52192 41.4955 9.03896L47.1782 13.0651C47.3939 13.2179 47.2927 13.5479 47.0256 13.5624L17.0323 15.1936C16.1246 15.243 15.2286 14.9763 14.5069 14.442L10.3396 11.3567ZM15.6255 20.3074C15.6255 19.333 16.4126 18.5281 17.4193 18.4733L49.1307 16.7463C50.1118 16.6929 50.9376 17.4473 50.9376 18.397L50.9376 47.0347C50.9376 48.0073 50.1532 48.8114 49.1486 48.8685L17.6379 50.6614C16.5461 50.7236 15.6255 49.8846 15.6255 48.8276L15.6255 20.3074Z" fill="black"/>
</svg>
