<svg width="50" height="50" viewBox="0 0 50 50" fill="none" xmlns="http://www.w3.org/2000/svg">
<path d="M44.6874 23.1237C47.276 23.1237 49.3745 21.0252 49.3745 18.4366V18.4366C49.3745 15.848 47.2758 13.7495 44.6872 13.7495V13.7495C42.0984 13.7495 39.9995 15.8482 39.9995 18.437V23.1237L44.6874 23.1237ZM31.562 23.1237C34.1508 23.1237 36.2495 21.025 36.2495 18.4362V5.31201C36.2495 2.72318 34.1508 0.624512 31.562 0.624512V0.624512C28.9732 0.624512 26.8745 2.72318 26.8745 5.31201L26.8745 18.4362C26.8745 21.025 28.9732 23.1237 31.562 23.1237V23.1237Z" fill="#2EB67D"/>
<path d="M5.31161 26.8753C2.723 26.8753 0.624512 28.9738 0.624512 31.5624V31.5624C0.624512 34.151 2.7232 36.2495 5.31181 36.2495V36.2495C7.90064 36.2495 9.99951 34.1508 9.99951 31.562V26.8753L5.31161 26.8753ZM18.437 26.8753C15.8482 26.8753 13.7495 28.974 13.7495 31.5628L13.7495 44.687C13.7495 47.2758 15.8482 49.3745 18.437 49.3745V49.3745C21.0258 49.3745 23.1245 47.2758 23.1245 44.687L23.1245 31.5628C23.1245 28.974 21.0258 26.8753 18.437 26.8753V26.8753Z" fill="#E01E5A"/>
<path d="M26.8753 44.6874C26.8753 47.276 28.9738 49.3745 31.5624 49.3745V49.3745C34.151 49.3745 36.2495 47.2758 36.2495 44.6872V44.6872C36.2495 42.0984 34.1508 39.9995 31.562 39.9995L26.8753 39.9995L26.8753 44.6874ZM26.8753 31.562C26.8753 34.1508 28.974 36.2495 31.5628 36.2495L44.687 36.2495C47.2758 36.2495 49.3745 34.1508 49.3745 31.562V31.562C49.3745 28.9732 47.2758 26.8745 44.687 26.8745L31.5628 26.8745C28.974 26.8745 26.8753 28.9732 26.8753 31.562V31.562Z" fill="#ECB22E"/>
<path d="M23.1237 5.31161C23.1237 2.723 21.0252 0.624516 18.4366 0.624516V0.624516C15.848 0.624515 13.7495 2.7232 13.7495 5.31181V5.31181C13.7495 7.90065 15.8482 9.99951 18.437 9.99951L23.1237 9.99951L23.1237 5.31161ZM23.1237 18.437C23.1237 15.8482 21.025 13.7495 18.4362 13.7495L5.31201 13.7495C2.72318 13.7495 0.624512 15.8482 0.624512 18.437V18.437C0.624512 21.0258 2.72318 23.1245 5.31201 23.1245L18.4362 23.1245C21.025 23.1245 23.1237 21.0258 23.1237 18.437V18.437Z" fill="#36C5F0"/>
</svg>
