<svg width="58" height="60" viewBox="0 0 58 60" fill="none" xmlns="http://www.w3.org/2000/svg">
<path d="M44.0088 19.7559V12.6111C45.9362 11.7103 47.1717 9.77923 47.1815 7.65186V7.48792C47.1815 4.44919 44.7178 1.9858 41.6791 1.9858H41.5149C38.4758 1.9858 36.0122 4.44919 36.0122 7.48792V7.65186C36.022 9.77923 37.2574 11.7103 39.1849 12.6111V19.7559C36.4709 20.1715 33.915 21.2968 31.7758 23.0177L12.1786 7.75501C12.3184 7.25062 12.3912 6.73193 12.3995 6.21131C12.4044 3.70367 10.8979 1.44007 8.58257 0.4763C6.2673 -0.487473 3.59936 0.0384342 1.82314 1.80873C0.046909 3.57903 -0.487701 6.24497 0.468655 8.56313C1.42501 10.8813 3.68394 12.395 6.19183 12.3982C7.26467 12.3932 8.31741 12.1068 9.24492 11.5677L28.5426 26.5826C24.9947 31.9416 25.0896 38.926 28.7816 44.1869L22.9123 50.0573C22.4376 49.9058 21.9436 49.8251 21.4454 49.8183C18.6345 49.8208 16.3573 52.1001 16.3581 54.9107C16.3588 57.7211 18.6374 59.9993 21.4481 60C24.259 60.0007 26.5386 57.7238 26.541 54.9132C26.5344 54.4152 26.4537 53.921 26.3017 53.4467L32.1081 47.6387C37.2962 51.6323 44.4217 51.9764 49.9706 48.5013C55.5193 45.026 58.3195 38.4652 56.99 32.055C55.6605 25.6445 50.4821 20.7386 44.0088 19.7559ZM41.602 43.2549C38.6817 43.3334 35.9489 41.8205 34.4656 39.3039C32.9822 36.7874 32.9822 33.664 34.4656 31.1474C35.9489 28.6309 38.6817 27.1179 41.602 27.1965C45.9248 27.3478 49.3516 30.8946 49.354 35.2199C49.356 39.5447 45.9328 43.0951 41.61 43.2508" fill="#FF7A59"/>
</svg>
