<svg width="60" height="60" viewBox="0 0 60 60" fill="none" xmlns="http://www.w3.org/2000/svg">
<path d="M37.4998 30.0131C37.5008 32.1766 37.1105 34.3223 36.3478 36.3469C34.3225 37.1095 32.1763 37.5004 30.0122 37.5007H29.9869C27.7584 37.4979 25.6233 37.0905 23.6531 36.3478C22.8899 34.3231 22.4993 32.1769 22.5 30.0131V29.9869C22.499 27.8238 22.8888 25.6784 23.6508 23.6541C25.6759 22.89 27.8227 22.499 29.9871 22.5H30.0124C32.1766 22.499 34.3232 22.8899 36.348 23.6538C37.1109 25.678 37.5011 27.8235 37.5 29.9866L37.4998 30.0131ZM59.5833 25.0001H42.0717L54.4535 12.6173C53.4817 11.2521 52.3976 9.97044 51.2126 8.78555V8.78461C50.0275 7.60099 48.7462 6.51789 47.3817 5.54648L34.999 17.9292V0.417656C33.3521 0.140608 31.685 0.000908647 30.015 0H29.9841C28.2853 0.0009375 26.6215 0.145313 25.0001 0.417656V17.9292L12.6173 5.54648C11.2527 6.51762 9.97186 7.6015 8.78836 8.78672L8.7818 8.79141C7.5988 9.97482 6.51624 11.2545 5.54531 12.6173L17.929 25.0001H0.417656C0.417656 25.0001 0 28.2891 0 29.9897V30.0103C0 31.7109 0.144141 33.3776 0.417656 34.9999H17.9292L5.54555 47.3827C7.49359 50.1164 9.88359 52.5064 12.6173 54.4545L25.0001 42.0708V59.5833C26.6452 59.859 28.3102 59.9983 29.9782 60H30.0206C31.6886 59.9985 33.3537 59.8591 34.9987 59.5833V42.0708L47.3827 54.4545C48.7468 53.4827 50.0279 52.3993 51.2126 51.2154L51.2154 51.2126C52.3988 50.0276 53.4819 48.7466 54.4535 47.3827L42.0698 34.9999H59.5833C59.8559 33.3804 59.9981 31.7187 60 30.0218V29.9782C59.9981 28.2813 59.8559 26.6196 59.5833 25.0001Z" fill="#FF4A00"/>
</svg>
