<svg width="60" height="60" viewBox="0 0 60 60" fill="none" xmlns="http://www.w3.org/2000/svg">
<rect width="60" height="60" rx="30" fill="url(#paint0_linear_305_2361)"/>
<path d="M11.8022 47.4537L14.3746 38.1127C12.7843 35.371 11.95 32.266 11.9587 29.0918C11.9587 19.1454 20.0928 11.0586 30.078 11.0586C34.9272 11.0586 39.4809 12.9354 42.8962 16.3431C46.3202 19.7509 48.206 24.2829 48.1973 29.1005C48.1973 39.0468 40.0632 47.1337 30.0693 47.1337H30.0606C27.0277 47.1337 24.0469 46.3726 21.3964 44.9368L11.8022 47.4537ZM21.8569 41.6761L22.4044 42.0048C24.7161 43.3713 27.3666 44.0892 30.0693 44.0979H30.078C38.3772 44.0979 45.1383 37.3776 45.1383 29.1091C45.1383 25.1046 43.574 21.3423 40.7323 18.5054C37.8906 15.6685 34.1016 14.1117 30.078 14.1117C21.7787 14.103 15.0177 20.8233 15.0177 29.0918C15.0177 31.92 15.8085 34.6791 17.3206 37.0662L17.6769 37.637L16.1561 43.1638L21.8569 41.6761Z" fill="white"/>
<path d="M12.4365 46.8223L14.922 37.8013C13.3838 35.1634 12.5756 32.1622 12.5756 29.1004C12.5843 19.5 20.4316 11.6899 30.0779 11.6899C34.7619 11.6899 39.1506 13.5062 42.4529 16.7929C45.7552 20.0795 47.5715 24.4559 47.5715 29.1091C47.5715 38.7095 39.7154 46.5196 30.0779 46.5196H30.0692C27.1405 46.5196 24.264 45.7844 21.7091 44.4005L12.4365 46.8223Z" fill="url(#paint1_linear_305_2361)"/>
<path d="M11.8022 47.4537L14.3746 38.1127C12.7843 35.371 11.95 32.266 11.9587 29.0918C11.9587 19.1454 20.0928 11.0586 30.078 11.0586C34.9272 11.0586 39.4809 12.9354 42.8962 16.3431C46.3202 19.7509 48.206 24.2829 48.1973 29.1005C48.1973 39.0468 40.0632 47.1337 30.0693 47.1337H30.0606C27.0277 47.1337 24.0469 46.3726 21.3964 44.9368L11.8022 47.4537ZM21.8569 41.6761L22.4044 42.0048C24.7161 43.3713 27.3666 44.0892 30.0693 44.0979H30.078C38.3772 44.0979 45.1383 37.3776 45.1383 29.1091C45.1383 25.1046 43.574 21.3423 40.7323 18.5054C37.8906 15.6685 34.1016 14.1117 30.078 14.1117C21.7787 14.103 15.0177 20.8233 15.0177 29.0918C15.0177 31.92 15.8085 34.6791 17.3206 37.0662L17.6769 37.637L16.1561 43.1638L21.8569 41.6761Z" fill="url(#paint2_linear_305_2361)"/>
<path fill-rule="evenodd" clip-rule="evenodd" d="M25.5504 21.5498C25.2115 20.7973 24.8552 20.78 24.5336 20.7713C24.2729 20.7627 23.9688 20.7627 23.6646 20.7627C23.3604 20.7627 22.8738 20.8751 22.4566 21.3249C22.0395 21.7746 20.875 22.8644 20.875 25.0872C20.875 27.3014 22.5001 29.4463 22.726 29.749C22.952 30.0517 25.8632 34.7482 30.4604 36.5558C34.2842 38.0607 35.0663 37.758 35.8919 37.6802C36.7174 37.6023 38.5685 36.5904 38.9509 35.5352C39.3245 34.48 39.3245 33.5805 39.2116 33.3903C39.0986 33.2 38.7944 33.0876 38.3425 32.8627C37.8906 32.6378 35.6659 31.548 35.2488 31.3923C34.8316 31.2453 34.5275 31.1675 34.232 31.6172C33.9279 32.067 33.0588 33.0789 32.7981 33.3816C32.5374 33.6843 32.268 33.7189 31.8161 33.4941C31.3642 33.2692 29.9042 32.7935 28.1749 31.254C26.8279 30.0604 25.9154 28.5814 25.6547 28.1317C25.394 27.6819 25.6286 27.4397 25.8546 27.2149C26.0544 27.0159 26.3064 26.6873 26.5324 26.4278C26.7583 26.1683 26.8366 25.9781 26.9843 25.6753C27.132 25.3726 27.0625 25.1132 26.9495 24.8883C26.8366 24.6721 25.9501 22.4406 25.5504 21.5498Z" fill="white"/>
<defs>
<linearGradient id="paint0_linear_305_2361" x1="29.9984" y1="59.997" x2="29.9984" y2="-0.00209924" gradientUnits="userSpaceOnUse">
<stop stop-color="#20B038"/>
<stop offset="1" stop-color="#60D66A"/>
</linearGradient>
<linearGradient id="paint1_linear_305_2361" x1="30.0031" y1="46.8205" x2="30.0031" y2="11.6887" gradientUnits="userSpaceOnUse">
<stop stop-color="#20B038"/>
<stop offset="1" stop-color="#60D66A"/>
</linearGradient>
<linearGradient id="paint2_linear_305_2361" x1="30.0033" y1="47.4502" x2="30.0033" y2="11.0586" gradientUnits="userSpaceOnUse">
<stop stop-color="#F9F9F9"/>
<stop offset="1" stop-color="white"/>
</linearGradient>
</defs>
</svg>
